# xmcd
#
# Track frame offsets: 
#        150
#        27350
#        51033
#        78974
#        96379
#        124625
#        148004
#        177746
#        212157
#
# Disc length: 3074 seconds
#
# Revision: 1
# Processed by: cddbd v1.5.2PL0 Copyright (c) Steve Scherf et al.
# Submitted via: ExactAudioCopy v0.99pb4
#
DISCID=7f0c0009
DTITLE=Tracy Conover - Live! At The Cactus Moon
DYEAR=2004
DGENRE=Blues
TTITLE0=Addiction
TTITLE1=Wanta Be An Angel
TTITLE2=Stopping For Nothing
TTITLE3=Rest My Wings
TTITLE4=Calvin
TTITLE5=There For Me
TTITLE6=Rainforest
TTITLE7=Goin' Down
TTITLE8=Tell Me
EXTD=
EXTT0=
EXTT1=
EXTT2=
EXTT3=
EXTT4=
EXTT5=
EXTT6=
EXTT7=
EXTT8=
PLAYORDER=
